<svg width="32" height="32" viewBox="0 0 32 32" fill="none" xmlns="http://www.w3.org/2000/svg">
<path d="M13.3333 1.33329H2.66665C2.31302 1.33329 1.97389 1.47377 1.72384 1.72381C1.47379 1.97386 1.33331 2.313 1.33331 2.66662V13.3333C1.33331 13.6869 1.47379 14.0261 1.72384 14.2761C1.97389 14.5261 2.31302 14.6666 2.66665 14.6666H13.3333C13.6869 14.6666 14.0261 14.5261 14.2761 14.2761C14.5262 14.0261 14.6666 13.6869 14.6666 13.3333V2.66662C14.6666 2.313 14.5262 1.97386 14.2761 1.72381C14.0261 1.47377 13.6869 1.33329 13.3333 1.33329ZM12 12H3.99998V3.99996H12V12Z" fill="#2F4CDD"/>
<path d="M29.3333 1.33329H18.6666C18.313 1.33329 17.9739 1.47377 17.7238 1.72381C17.4738 1.97386 17.3333 2.313 17.3333 2.66662V13.3333C17.3333 13.6869 17.4738 14.0261 17.7238 14.2761C17.9739 14.5261 18.313 14.6666 18.6666 14.6666H29.3333C29.6869 14.6666 30.0261 14.5261 30.2761 14.2761C30.5262 14.0261 30.6666 13.6869 30.6666 13.3333V2.66662C30.6666 2.313 30.5262 1.97386 30.2761 1.72381C30.0261 1.47377 29.6869 1.33329 29.3333 1.33329ZM28 12H20V3.99996H28V12Z" fill="#2F4CDD"/>
<path d="M13.3333 17.3333H2.66665C2.31302 17.3333 1.97389 17.4738 1.72384 17.7238C1.47379 17.9739 1.33331 18.313 1.33331 18.6666V29.3333C1.33331 29.6869 1.47379 30.0261 1.72384 30.2761C1.97389 30.5262 2.31302 30.6666 2.66665 30.6666H13.3333C13.6869 30.6666 14.0261 30.5262 14.2761 30.2761C14.5262 30.0261 14.6666 29.6869 14.6666 29.3333V18.6666C14.6666 18.313 14.5262 17.9739 14.2761 17.7238C14.0261 17.4738 13.6869 17.3333 13.3333 17.3333ZM12 28H3.99998V20H12V28Z" fill="#2F4CDD"/>
<path d="M29.3333 17.3333H18.6666C18.313 17.3333 17.9739 17.4738 17.7238 17.7238C17.4738 17.9739 17.3333 18.313 17.3333 18.6666V29.3333C17.3333 29.6869 17.4738 30.0261 17.7238 30.2761C17.9739 30.5262 18.313 30.6666 18.6666 30.6666H29.3333C29.6869 30.6666 30.0261 30.5262 30.2761 30.2761C30.5262 30.0261 30.6666 29.6869 30.6666 29.3333V18.6666C30.6666 18.313 30.5262 17.9739 30.2761 17.7238C30.0261 17.4738 29.6869 17.3333 29.3333 17.3333ZM28 28H20V20H28V28Z" fill="#2F4CDD"/>
</svg>
