<svg width="23" height="22" viewBox="0 0 23 22" fill="none" xmlns="http://www.w3.org/2000/svg">
<path d="M19.6684 0H2.52483C1.85543 0.000735128 1.21365 0.266979 0.740317 0.740317C0.266979 1.21365 0.000735128 1.85543 0 2.52483V14.3074C0.000735128 14.9768 0.266979 15.6185 0.740317 16.0919C1.21365 16.5652 1.85543 16.8314 2.52483 16.8322C2.74799 16.8323 2.96198 16.921 3.11979 17.0788C3.27759 17.2366 3.3663 17.4506 3.36644 17.6738V19.4679C3.36644 19.7726 3.44912 20.0715 3.60568 20.3329C3.76224 20.5943 3.9868 20.8082 4.25541 20.952C4.52403 21.0957 4.82662 21.1639 5.13093 21.1492C5.43523 21.1345 5.72984 21.0375 5.98334 20.8685L11.8253 16.9736C11.9634 16.8811 12.1259 16.8318 12.2921 16.8322H16.395C16.9463 16.8312 17.4822 16.6505 17.9216 16.3175C18.3611 15.9846 18.68 15.5175 18.8302 14.987L22.1045 3.20123C22.2079 2.82594 22.2232 2.43186 22.1493 2.04968C22.0755 1.6675 21.9144 1.30751 21.6787 0.997752C21.4429 0.68799 21.1389 0.436806 20.7902 0.26375C20.4416 0.0906938 20.0577 0.000435439 19.6684 0ZM20.4812 2.75417L17.2085 14.5359C17.1579 14.7125 17.0512 14.868 16.9044 14.9786C16.7576 15.0892 16.5788 15.149 16.395 15.149H12.2921C11.7936 15.1483 11.3061 15.2959 10.8916 15.5731L5.04965 19.4679V17.6738C5.04892 17.0044 4.78267 16.3626 4.30934 15.8893C3.836 15.4159 3.19423 15.1497 2.52483 15.149C2.30166 15.1488 2.08767 15.0601 1.92987 14.9023C1.77206 14.7445 1.68335 14.5305 1.68322 14.3074V2.52483C1.68335 2.30166 1.77206 2.08767 1.92987 1.92987C2.08767 1.77206 2.30166 1.68335 2.52483 1.68322H19.6684C19.7985 1.68355 19.9268 1.71389 20.0432 1.77188C20.1596 1.82988 20.2611 1.91396 20.3398 2.01758C20.4184 2.1212 20.4721 2.24158 20.4967 2.36933C20.5212 2.49709 20.5159 2.62878 20.4812 2.75417Z" fill="#2F4CDD"/>
<path d="M5.04962 7.57445H9.25766C9.48087 7.57445 9.69494 7.48578 9.85277 7.32795C10.0106 7.17012 10.0993 6.95605 10.0993 6.73284C10.0993 6.50964 10.0106 6.29557 9.85277 6.13774C9.69494 5.9799 9.48087 5.89124 9.25766 5.89124H5.04962C4.82641 5.89124 4.61234 5.9799 4.45451 6.13774C4.29668 6.29557 4.20801 6.50964 4.20801 6.73284C4.20801 6.95605 4.29668 7.17012 4.45451 7.32795C4.61234 7.48578 4.82641 7.57445 5.04962 7.57445Z" fill="#2F4CDD"/>
<path d="M12.6241 9.25769H5.04962C4.82641 9.25769 4.61234 9.34636 4.45451 9.50419C4.29668 9.66202 4.20801 9.87609 4.20801 10.0993C4.20801 10.3225 4.29668 10.5366 4.45451 10.6944C4.61234 10.8522 4.82641 10.9409 5.04962 10.9409H12.6241C12.8473 10.9409 13.0614 10.8522 13.2192 10.6944C13.377 10.5366 13.4657 10.3225 13.4657 10.0993C13.4657 9.87609 13.377 9.66202 13.2192 9.50419C13.0614 9.34636 12.8473 9.25769 12.6241 9.25769Z" fill="#2F4CDD"/>
</svg>
